PathFileType        4      (X/Y/Z)      C:\Users\pc\Desktop\IMUTRC\Sujet_05\Sujet_05_Tpose.trc         
DataRate	CameraRate	NumFrames	NumMarkers	Units	OrigDataRate	OrigDataStartFrame	OrigNumFrames
60.0	60.0	4	64	mm	60.0	73	116
Frame#	Time	pHipOrigin			pRightASI			pLeftASI			pRightCSI			pLeftCSI			pRightIschialTub			pLeftIschialTub			pSacrum			pL5SpinalProcess			pL3SpinalProcess			pT12SpinalProcess			pIJ			pT4SpinalProcess			pT8SpinalProcess			pPX			pC7SpinalProcess			pTopOfHead			pRightAuricularis			pLeftAuricularis			pBackOfHead			pRightAcromion			pLeftAcromion			pRightArmLatEpicondyle			pRightArmMedEpicondyle			pLeftArmLatEpicondyle			pLeftArmMedEpicondyle			pRightUlnarStyloid			pRightRadialStyloid			pRightOlecranon			pLeftUlnarStyloid			pLeftRadialStyloid			pLeftOlecranon			pRightTopOfHand			pRightPinky			pRightBallHand			pLeftTopOfHand			pLeftPinky			pLeftBallHand			pRightGreaterTrochanter			pRightKneeLatEpicondyle			pRightKneeMedEpicondyle			pRightPatella			pLeftGreaterTrochanter			pLeftKneeLatEpicondyle			pLeftKneeMedEpicondyle			pLeftPatella			pRightTibialTub			pRightLatMalleolus			pRightMedMalleolus			pLeftTibialTub			pLeftLatMalleolus			pLeftMedMalleolus			pRightHeelFoot			pRightFirstMetatarsal			pRightFifthMetatarsal			pRightPivotFoot			pRightHeelCenter			pRightToe			pLeftHeelFoot			pLeftFirstMetatarsal			pLeftFifthMetatarsal			pLeftPivotFoot			pLeftHeelCenter			pLeftToe			
		X1	Y1	Z1	X2	Y2	Z2	X3	Y3	Z3	X4	Y4	Z4	X5	Y5	Z5	X6	Y6	Z6	X7	Y7	Z7	X8	Y8	Z8	X9	Y9	Z9	X10	Y10	Z10	X11	Y11	Z11	X12	Y12	Z12	X13	Y13	Z13	X14	Y14	Z14	X15	Y15	Z15	X16	Y16	Z16	X17	Y17	Z17	X18	Y18	Z18	X19	Y19	Z19	X20	Y20	Z20	X21	Y21	Z21	X22	Y22	Z22	X23	Y23	Z23	X24	Y24	Z24	X25	Y25	Z25	X26	Y26	Z26	X27	Y27	Z27	X28	Y28	Z28	X29	Y29	Z29	X30	Y30	Z30	X31	Y31	Z31	X32	Y32	Z32	X33	Y33	Z33	X34	Y34	Z34	X35	Y35	Z35	X36	Y36	Z36	X37	Y37	Z37	X38	Y38	Z38	X39	Y39	Z39	X40	Y40	Z40	X41	Y41	Z41	X42	Y42	Z42	X43	Y43	Z43	X44	Y44	Z44	X45	Y45	Z45	X46	Y46	Z46	X47	Y47	Z47	X48	Y48	Z48	X49	Y49	Z49	X50	Y50	Z50	X51	Y51	Z51	X52	Y52	Z52	X53	Y53	Z53	X54	Y54	Z54	X55	Y55	Z55	X56	Y56	Z56	X57	Y57	Z57	X58	Y58	Z58	X59	Y59	Z59	X60	Y60	Z60	X61	Y61	Z61	X62	Y62	Z62	X63	Y63	Z63	X64	Y64	Z64	
73	1.2	270.51248	878.98003	284.33497000000006	344.63439	971.00623	403.07844000000006	321.07123	971.56284	154.27375000000006	301.40434	1033.53209	386.19460000000004	281.83022	1033.99593	179.22844000000006	223.5717	825.91654	340.83089000000007	213.73826	826.19485	237.30142000000006	208.45046	898.83246	290.17937000000006	240.17724	986.68408	287.58186000000006	249.3613	1100.88191	288.04570000000007	245.92887	1205.33906	290.08660000000003	396.39912	1426.86986	279.6965500000001	244.16627	1401.82241	294.53948000000014	240.45554	1309.79621	292.77689000000004	396.58466	1301.07599	276.72796000000005	248.43362	1458.87494	301.2188000000001	327.84332	1727.16098	284.7060400000001	362.72421	1616.67388	341.1091900000001	274.77983	1626.41456	224.40662000000012	273.01723	1624.74473	317.4532600000001	288.41677	1424.64342	491.5794400000001	234.05453	1433.92025	96.47907000000008	325.52411	1331.78231	719.9751000000001	380.44297	1322.41271	706.0598500000001	161.41691	1352.65518	-126.53601999999991	215.59363	1336.88457	-136.92606999999992	452.89504	1252.00153	918.7776500000001	439.72194	1296.25203	937.6096300000002	355.39552	1306.64209	698.5456100000001	208.45046	1280.01757	-362.53867999999994	187.48482	1323.98977	-373.3925699999999	197.13273	1324.54638	-119.85669999999992	490.28068	1233.26233	1097.63501	491.20837	1218.976	1012.4736800000001	472.56193	1255.99057	953.0091700000002	194.34968	1288.27396	-547.1476799999999	217.7273	1261.27837	-468.5728899999999	216.42854	1288.45949	-401.3158399999999	275.1509	846.97496	433.2281500000001	255.11294	486.47718	408.83008000000007	258.7309	485.5495	338.41891000000004	296.48762	486.38441	373.29981000000004	254.27802	848.27371	135.44178000000005	229.32334	487.86871	156.87127000000004	237.9508	485.92057	226.81859000000003	273.01723	486.56995	189.34018000000003	307.80536	451.59629	374.7841	225.70537	85.16133999999997	407.53132	229.04503	83.95534999999998	347.97405	284.70604	452.89504	186.83544000000003	204.36866	85.90347999999999	155.38697	211.79012	84.14088999999998	214.57317	189.24742	-0.18554000000002288	373.48534	354.09676	2.3192099999999787	350.84987	346.67529	1.7625999999999737	428.96081	372.65043	2.319209999999976	390.92579	228.11735	3.061359999999977	377.19608	452.98781	3.0613599999999757	398.62556	169.6733	0.2783099999999885	187.94866	333.87326	2.597509999999987	215.03702	328.58546	2.3192099999999916	136.74054	353.54015	2.5975099999999895	175.42493	208.636	3.5251999999999883	185.25838	434.06307	3.3396599999999896	169.9516	
74	1.217	270.60525	878.88727	284.33497000000006	344.54162	971.00623	403.07844000000006	321.164	971.56284	154.27375000000006	301.31157	1033.53209	386.19460000000004	281.92299	1033.99593	179.22844000000006	223.5717	825.91654	340.83089000000007	213.83103	826.10208	237.39419000000007	208.54323	898.83246	290.27214000000004	240.17724	986.68408	287.58186000000006	249.3613	1100.88191	288.04570000000007	246.02164	1205.33906	290.08660000000003	396.58466	1426.86986	279.6037800000001	244.25904	1401.91517	294.44672000000014	240.54831	1309.88898	292.68412000000006	396.67743	1300.98322	276.72796000000005	248.61915	1458.87494	301.1260400000001	328.21439	1727.06821	284.6132700000001	363.00252	1616.58112	340.9236500000001	275.05813	1626.41456	224.31385000000012	273.29553	1624.74473	317.3605000000001	288.50954	1424.64342	491.4866700000001	234.33283	1433.82748	96.38631000000008	325.70965	1331.68954	719.9751000000001	380.53574	1322.31994	706.0598500000001	161.69522	1352.46965	-126.53601999999991	215.87193	1336.69903	-137.01883999999993	453.08058	1251.90877	918.6848800000001	439.81471	1296.15926	937.5168600000001	355.48828	1306.64209	698.4528400000002	208.72877	1279.6465	-362.6314499999999	187.85589	1323.61869	-373.48533999999995	197.41103	1324.36084	-119.85669999999992	490.37345	1233.07679	1097.54225	491.30114	1218.88324	1012.3809100000001	472.74747	1255.8978	952.9164000000001	194.53521	1287.81011	-547.1476799999999	217.91283	1260.90729	-468.5728899999999	216.70685	1288.08842	-401.3158399999999	275.1509	846.97496	433.2281500000001	255.11294	486.47718	408.83008000000007	258.7309	485.5495	338.51168000000007	296.48762	486.38441	373.39257000000003	254.27802	848.27371	135.44178000000005	229.32334	487.86871	156.87127000000004	237.9508	485.92057	226.81859000000003	273.11	486.56995	189.34018000000003	307.80536	451.59629	374.7841	225.70537	85.16133999999997	407.53132	229.04503	83.95534999999998	347.97405	284.79881	452.80227	186.83544000000003	204.46142	85.90347999999999	155.38697	211.79012	84.14088999999998	214.57317	189.24742	-0.18554000000002288	373.48534	354.09676	2.3192099999999787	350.84987	346.67529	1.8553699999999738	428.96081	372.65043	2.319209999999976	390.92579	228.11735	3.061359999999977	377.19608	452.98781	3.0613599999999757	398.62556	169.6733	0.2783099999999885	187.94866	333.87326	2.597509999999987	214.94425	328.58546	2.2264399999999918	136.74054	353.54015	2.5975099999999895	175.42493	208.636	3.5251999999999883	185.25838	434.06307	3.3396599999999896	169.9516	
75	1.233	270.60525	878.88727	284.42773000000005	344.54162	971.099	403.17121000000003	321.25677	971.56284	154.36652000000007	301.31157	1033.53209	386.28737000000007	281.92299	1033.99593	179.22844000000006	223.5717	825.91654	340.92365000000007	213.9238	826.10208	237.39419000000007	208.54323	898.83246	290.27214000000004	240.17724	986.68408	287.58186000000006	249.45407	1100.88191	288.04570000000007	246.11441	1205.33906	290.08660000000003	396.67743	1426.77709	279.6037800000001	244.35181	1401.91517	294.3539500000001	240.64108	1309.88898	292.68412000000006	396.7702	1300.98322	276.72796000000005	248.80469	1458.87494	301.03327000000013	328.58546	1727.06821	284.4277300000001	363.28082	1616.48835	340.8308900000001	275.33644	1626.41456	224.22108000000011	273.57384	1624.74473	317.2677300000001	288.60231	1424.64342	491.3939000000001	234.4256	1433.73471	96.29354000000008	325.80241	1331.59677	719.8823300000001	380.6285	1322.22717	705.9670800000001	161.97352	1352.28411	-126.62878999999991	216.05747	1336.51349	-137.01883999999993	453.17335	1251.816	918.5921200000001	439.90747	1296.0665	937.4240900000001	355.58105	1306.54932	698.3600700000001	209.00707	1279.27543	-362.6314499999999	188.1342	1323.24762	-373.48533999999995	197.59657	1324.1753	-119.94946999999992	490.37345	1232.89126	1097.44948	491.3939	1218.6977	1012.2881400000001	472.84024	1255.71227	952.8236300000001	194.72075	1287.34627	-547.2404499999999	218.19114	1260.53622	-468.66565999999995	216.98515	1287.71735	-401.40860999999995	275.1509	846.97496	433.32092000000006	255.02017	486.47718	408.92285000000004	258.7309	485.5495	338.51168000000007	296.39485	486.38441	373.48534000000006	254.37079	848.27371	135.53455000000005	229.41611	487.86871	156.96403000000004	238.04356	485.92057	226.81859000000003	273.20277	486.56995	189.34018000000003	307.80536	451.59629	374.87687	225.70537	85.16133999999997	407.53132	229.04503	83.95534999999998	347.97405	284.79881	452.80227	186.83544000000003	204.46142	85.90347999999999	155.38697	211.79012	84.04811999999998	214.57317	189.24742	-0.18554000000002288	373.48534	354.09676	2.4119799999999785	350.84987	346.67529	1.8553699999999738	428.96081	372.65043	2.319209999999976	390.92579	228.11735	3.061359999999977	377.19608	452.98781	3.0613599999999757	398.62556	169.6733	0.2783099999999885	187.94866	333.87326	2.5047499999999867	214.94425	328.58546	2.2264399999999918	136.74054	353.54015	2.5975099999999895	175.42493	208.636	3.5251999999999883	185.25838	434.06307	3.24688999999999	169.85883	
76	1.25	270.60525	878.88727	284.42773000000005	344.44885	971.099	403.26398000000006	321.34953	971.56284	154.45929000000007	301.31157	1033.62486	386.28737000000007	282.01576	1033.90316	179.32120000000006	223.5717	825.91654	340.92365000000007	213.9238	826.10208	237.48695000000006	208.54323	898.83246	290.27214000000004	240.17724	986.68408	287.58186000000006	249.45407	1100.88191	288.04570000000007	246.11441	1205.33906	289.99383000000006	396.86296	1426.77709	279.5110100000001	244.53735	1401.91517	294.26118000000014	240.73385	1309.88898	292.59135000000003	396.86296	1300.89045	276.72796000000005	248.89746	1458.87494	300.9405000000001	328.95654	1726.97544	284.3349700000001	363.55913	1616.48835	340.6453500000001	275.52197	1626.41456	224.0355400000001	273.85214	1624.8375	317.1749600000001	288.69508	1424.64342	491.3011400000001	234.61114	1433.64195	96.20077000000009	325.89518	1331.59677	719.7895600000002	380.72127	1322.22717	705.8743100000002	162.15906	1352.00581	-126.72154999999991	216.33577	1336.32796	-137.11160999999993	453.17335	1251.63046	918.4993500000002	440.00024	1295.88096	937.3313200000001	355.67382	1306.45655	698.2673000000001	209.28538	1278.99712	-362.6314499999999	188.31973	1322.96932	-373.5781099999999	197.87487	1323.98977	-120.04222999999992	490.46622	1232.70572	1097.35671	491.3939	1218.51216	1012.1953700000001	472.84024	1255.6195	952.7308700000001	194.81352	1286.9752	-547.2404499999999	218.28391	1260.07238	-468.66565999999995	217.17069	1287.34627	-401.40860999999995	275.05813	846.97496	433.41369000000003	255.02017	486.47718	408.92285000000004	258.7309	485.5495	338.60445000000004	296.39485	486.47718	373.48534000000006	254.37079	848.18094	135.62731000000005	229.41611	487.86871	156.96403000000004	238.13633	485.8278	226.81859000000003	273.20277	486.56995	189.34018000000003	307.80536	451.59629	374.87687	225.70537	85.16133999999997	407.53132	229.04503	84.04811999999998	347.97405	284.89158	452.80227	186.83544000000003	204.46142	85.90347999999999	155.38697	211.79012	84.04811999999998	214.57317	189.24742	-0.18554000000002288	373.48534	354.09676	2.4119799999999785	350.84987	346.67529	1.8553699999999738	428.96081	372.65043	2.319209999999976	391.01856	228.11735	3.061359999999977	377.19608	452.98781	3.0613599999999757	398.62556	169.6733	0.2783099999999885	187.94866	333.96603	2.5047499999999867	214.94425	328.58546	2.2264399999999918	136.74054	353.54015	2.5047499999999894	175.42493	208.636	3.4324299999999885	185.25838	434.06307	3.24688999999999	169.85883	
